<svg width="19" height="10" viewBox="0 0 19 10" fill="none" xmlns="http://www.w3.org/2000/svg">
<path d="M1.68536 0.2718C1.28319 -0.106717 0.650316 -0.0875385 0.2718 0.314635C-0.106717 0.716809 -0.0875385 1.34968 0.314635 1.7282L1.68536 0.2718ZM9.5 9L8.81464 9.7282C9.19969 10.0906 9.80031 10.0906 10.1854 9.7282L9.5 9ZM18.6854 1.7282C19.0875 1.34968 19.1067 0.716809 18.7282 0.314635C18.3497 -0.0875385 17.7168 -0.106717 17.3146 0.2718L18.6854 1.7282ZM0.314635 1.7282L8.81464 9.7282L10.1854 8.2718L1.68536 0.2718L0.314635 1.7282ZM10.1854 9.7282L18.6854 1.7282L17.3146 0.2718L8.81464 8.2718L10.1854 9.7282Z" fill="#FEF4F4"/>
</svg>
