<svg width="104" height="24" viewBox="0 0 104 24" fill="none" xmlns="http://www.w3.org/2000/svg">
<g clip-path="url(#clip0_39_37)">
<path d="M16.5117 15.6616C19.3499 14.101 21.5017 12.912 21.6871 12.8196C22.2802 12.5036 22.893 11.6674 21.6871 11.018C21.2978 10.8138 19.2014 9.66158 16.5117 8.17603L12.7833 11.9465L16.5115 15.6616H16.5117Z" fill="#FFD900"/>
<path d="M12.7833 11.9465L0.911133 23.928C1.18961 23.965 1.50423 23.891 1.87533 23.6868C2.65408 23.2601 10.9091 18.7457 16.5119 15.6625L12.7833 11.9465Z" fill="#F43249"/>
<path d="M12.7833 11.9465L16.5115 8.19434C16.5115 8.19434 2.71037 0.65244 1.87515 0.207423C1.56093 0.0203045 1.20832 -0.0350175 0.892883 0.0203045L12.7833 11.9463V11.9465Z" fill="#00EE76"/>
<path d="M12.7833 11.9465L0.892659 0.0205078C0.410055 0.132169 0.00219727 0.559084 0.00219727 1.43183V22.516C0.00219727 23.3154 0.31784 23.8909 0.91094 23.9463L12.7831 11.9463L12.7833 11.9465Z" fill="#00D3FF"/>
<path d="M51.4989 12.346C49.3658 12.346 47.6033 13.999 47.6033 16.2654C47.6033 18.5132 49.3473 20.1847 51.4991 20.1847C53.6507 20.1847 55.3945 18.5317 55.3945 16.2654C55.3945 13.999 53.6507 12.346 51.4989 12.346ZM51.4989 18.6251C50.33 18.6251 49.3103 17.6403 49.3103 16.2479C49.3103 14.8361 50.3308 13.8706 51.4989 13.8706C52.667 13.8706 53.6875 14.8361 53.6875 16.2479C53.6875 17.6403 52.667 18.6251 51.4989 18.6251ZM43.0214 12.346C40.8696 12.346 39.1257 13.999 39.1257 16.2654C39.1257 18.5132 40.8696 20.1847 43.0214 20.1847C45.1731 20.1847 46.917 18.5317 46.917 16.2654C46.917 13.999 45.1731 12.346 43.0212 12.346H43.0214ZM43.0214 18.6251C41.8523 18.6251 40.8329 17.6403 40.8329 16.2479C40.8329 14.8361 41.8533 13.8706 43.0214 13.8706C44.1904 13.8706 45.21 14.8361 45.21 16.2479C45.21 17.6403 44.2078 18.6251 43.0214 18.6251ZM32.9485 13.5536V15.2065H36.8808C36.7691 16.1352 36.4547 16.8224 35.9906 17.2872C35.4158 17.8628 34.5253 18.4947 32.9485 18.4947C30.518 18.4947 28.6451 16.5259 28.6451 14.0923C28.6451 11.6588 30.519 9.65275 32.9485 9.65275C34.2651 9.65275 35.2118 10.173 35.9166 10.842L37.0848 9.67125C36.1013 8.72427 34.7847 8 32.9485 8C29.6275 8 26.8448 10.7301 26.8448 14.0553C26.8448 17.3807 29.6275 20.1108 32.9485 20.1108C34.7477 20.1108 36.0838 19.5167 37.1595 18.4016C38.2539 17.3057 38.5878 15.7636 38.5878 14.5193C38.5878 14.1294 38.5511 13.7763 38.4948 13.4789L32.9485 13.5536ZM74.1675 14.8351C73.8519 13.962 72.8507 12.346 70.8466 12.346C68.8426 12.346 67.1919 13.9252 67.1919 16.2654C67.1919 18.4569 68.8426 20.1847 71.0322 20.1847C72.8129 20.1847 73.8334 19.0888 74.2597 18.4569L72.9431 17.5654C72.4975 18.2159 71.9042 18.6426 71.0322 18.6426C70.1602 18.6426 69.5485 18.2527 69.1583 17.4536L74.3337 15.2805L74.1675 14.8351ZM68.8989 16.1545C68.8621 14.6494 70.068 13.8696 70.9205 13.8696C71.607 13.8696 72.1636 14.204 72.3673 14.7058L68.8989 16.1545ZM64.6879 19.9249H66.3949V8.44522H64.6879V19.9249ZM61.906 13.2192H61.8505C61.4612 12.7544 60.7379 12.346 59.8096 12.346C57.8617 12.346 56.0995 14.0738 56.0995 16.2654C56.0995 18.4569 57.8802 20.1664 59.8096 20.1664C60.7369 20.1664 61.4604 19.7578 61.8505 19.2745H61.906V19.8318C61.906 21.3369 61.1077 22.135 59.8281 22.135C58.7892 22.135 58.1396 21.3737 57.8802 20.7418L56.3967 21.3737C56.8228 22.414 57.955 23.6956 59.8281 23.6956C61.8312 23.6956 63.5197 22.5066 63.5197 19.6276V12.5873H61.906V13.2192ZM59.9581 18.6251C58.7892 18.6251 57.8065 17.6403 57.8065 16.2664C57.8065 14.8925 58.79 13.8889 59.9581 13.8889C61.1088 13.8889 62.036 14.8925 62.036 16.2664C62.0352 17.6218 61.1077 18.6251 59.9581 18.6251ZM82.1256 8.44542H78.0446V19.9249H79.7516V15.5779H82.1256C84.0181 15.5779 85.8727 14.203 85.8727 12.0117C85.8727 9.82014 84.0181 8.44522 82.1256 8.44522V8.44542ZM82.1809 13.9815H79.7691V10.0426H82.1809C83.4422 10.0426 84.1842 11.1015 84.1842 12.0115C84.1665 12.9031 83.4432 13.9815 82.1809 13.9815ZM92.6812 12.3275C91.4568 12.3275 90.1768 12.8663 89.6574 14.0923L91.1604 14.7243C91.4946 14.0923 92.0879 13.8881 92.719 13.8881C93.6094 13.8881 94.4997 14.4267 94.5182 15.3737V15.4856C94.2025 15.2999 93.554 15.0393 92.7374 15.0393C91.1052 15.0393 89.4534 15.9495 89.4534 17.6218C89.4534 19.1637 90.7896 20.1479 92.2733 20.1479C93.4238 20.1479 94.054 19.6276 94.4434 19.015H94.4989V19.9066H96.1494V15.5039C96.1311 13.4795 94.6289 12.3273 92.6812 12.3273V12.3275ZM92.4772 18.6066C91.9207 18.6066 91.1412 18.3275 91.1412 17.6411C91.1412 16.7494 92.1053 16.4151 92.9403 16.4151C93.6821 16.4151 94.0347 16.5822 94.4989 16.8049C94.3689 17.8638 93.4599 18.6066 92.4772 18.6066ZM102.105 12.5883L100.157 17.5477H100.101L98.0798 12.5881H96.2436L99.2855 19.535L97.56 23.4176H99.3407L103.997 12.5881H102.104L102.105 12.5883ZM86.8192 19.9249H88.5262V8.44522H86.8192V19.9249Z" fill="#1A1C22"/>
<path d="M31.448 3.112H32.632V5.384C32.328 5.61333 31.976 5.78933 31.576 5.912C31.176 6.03467 30.7733 6.096 30.368 6.096C29.7867 6.096 29.264 5.97333 28.8 5.728C28.336 5.47733 27.9707 5.13333 27.704 4.696C27.4427 4.25333 27.312 3.75467 27.312 3.2C27.312 2.64533 27.4427 2.14933 27.704 1.712C27.9707 1.26933 28.3387 0.925333 28.808 0.68C29.2773 0.429333 29.8053 0.304 30.392 0.304C30.8827 0.304 31.328 0.386666 31.728 0.552C32.128 0.717333 32.464 0.957333 32.736 1.272L31.904 2.04C31.504 1.61867 31.0213 1.408 30.456 1.408C30.0987 1.408 29.7813 1.48267 29.504 1.632C29.2267 1.78133 29.0107 1.992 28.856 2.264C28.7013 2.536 28.624 2.848 28.624 3.2C28.624 3.54667 28.7013 3.856 28.856 4.128C29.0107 4.4 29.224 4.61333 29.496 4.768C29.7733 4.91733 30.088 4.992 30.44 4.992C30.8133 4.992 31.1493 4.912 31.448 4.752V3.112ZM38.0519 4.96V6H33.7159V0.4H37.9479V1.44H35.0039V2.656H37.6039V3.664H35.0039V4.96H38.0519ZM40.1231 1.456H38.3311V0.4H43.2111V1.456H41.4191V6H40.1231V1.456ZM45.934 0.4H47.23V6H45.934V0.4ZM49.599 1.456H47.807V0.4H52.687V1.456H50.895V6H49.599V1.456ZM58.1219 6.096C57.5406 6.096 57.0153 5.97067 56.5459 5.72C56.0819 5.46933 55.7166 5.12533 55.4499 4.688C55.1886 4.24533 55.0579 3.74933 55.0579 3.2C55.0579 2.65067 55.1886 2.15733 55.4499 1.72C55.7166 1.27733 56.0819 0.930666 56.5459 0.68C57.0153 0.429333 57.5406 0.304 58.1219 0.304C58.7033 0.304 59.2259 0.429333 59.6899 0.68C60.1539 0.930666 60.5193 1.27733 60.7859 1.72C61.0526 2.15733 61.1859 2.65067 61.1859 3.2C61.1859 3.74933 61.0526 4.24533 60.7859 4.688C60.5193 5.12533 60.1539 5.46933 59.6899 5.72C59.2259 5.97067 58.7033 6.096 58.1219 6.096ZM58.1219 4.992C58.4526 4.992 58.7513 4.91733 59.0179 4.768C59.2846 4.61333 59.4926 4.4 59.6419 4.128C59.7966 3.856 59.8739 3.54667 59.8739 3.2C59.8739 2.85333 59.7966 2.544 59.6419 2.272C59.4926 2 59.2846 1.78933 59.0179 1.64C58.7513 1.48533 58.4526 1.408 58.1219 1.408C57.7913 1.408 57.4926 1.48533 57.2259 1.64C56.9593 1.78933 56.7486 2 56.5939 2.272C56.4446 2.544 56.3699 2.85333 56.3699 3.2C56.3699 3.54667 56.4446 3.856 56.5939 4.128C56.7486 4.4 56.9593 4.61333 57.2259 4.768C57.4926 4.91733 57.7913 4.992 58.1219 4.992ZM67.1759 0.4V6H66.1119L63.3199 2.6V6H62.0399V0.4H63.1119L65.8959 3.8V0.4H67.1759Z" fill="#1A1C22"/>
</g>
<defs>
<clipPath id="clip0_39_37">
<rect width="104" height="24" fill="white"/>
</clipPath>
</defs>
</svg>
